<?xml version="1.0" encoding="utf-8"?>
<!-- Generator: Adobe Illustrator 21.0.0, SVG Export Plug-In . SVG Version: 6.00 Build 0)  -->
<svg version="1.1" xmlns="http://www.w3.org/2000/svg" xmlns:xlink="http://www.w3.org/1999/xlink" x="0px" y="0px"
	 viewBox="0 0 500 500" style="enable-background:new 0 0 500 500;" xml:space="preserve">
<style type="text/css">
	.st0{fill:#D3F2FE;}
	.st1{fill:#FFFFFF;stroke:#D3F2FE;stroke-miterlimit:10;}
	.st2{fill:none;stroke:#59B3EB;stroke-miterlimit:10;}
	.st3{fill:#AFD7FE;}
	.st4{fill:none;stroke:#D3F2FE;stroke-miterlimit:10;}
	.st5{fill:#2F7D54;}
	.st6{fill:none;stroke:#2F7D54;stroke-miterlimit:10;}
	.st7{fill:#84B063;}
	.st8{fill:#E2E2E2;}
	.st9{fill:#5799E6;}
	.st10{fill:#FFFFFF;}
	.st11{opacity:0.12;}
	.st12{fill:#FFFFFF;stroke:#59B3EB;stroke-miterlimit:10;}
	.st13{fill:#FFC0AD;}
	.st14{fill:#2A3141;}
	.st15{fill:#ED6A66;}
	.st16{fill:none;stroke:#2A3141;stroke-miterlimit:10;}
	.st17{fill:none;stroke:#808080;stroke-miterlimit:10;}
	.st18{fill:#808080;}
	.st19{fill:#59B3EB;}
	.st20{fill:#A8D18A;}
	.st21{font-family:'Rubik-Bold';}
	.st22{font-size:21.0566px;}
	.st23{fill:#FF957A;}
	.st24{fill:#CF5959;}
	.st25{fill:#F7BCB2;}
	.st26{opacity:0.3;fill:#947FAD;}
</style>
<g id="BACKGROUND">
	<g>
		<path class="st0" d="M452.5,96.4h-69c-1.2,0-2.1,0.9-2.1,2.1v50.1v1.8v8.3c0,1.8,2.2,2.8,3.5,1.5l10.3-9.3
			c0.4-0.4,0.9-0.5,1.4-0.5h55.9c1.2,0,2.1-0.9,2.1-2.1V98.5C454.6,97.3,453.6,96.4,452.5,96.4z"/>
		<path class="st1" d="M359,55h58.3c1,0,1.8,0.8,1.8,1.8V99v1.5v7c0,1.5-1.8,2.3-3,1.3l-8.7-7.9c-0.3-0.3-0.7-0.5-1.2-0.5H359
			c-1,0-1.8-0.8-1.8-1.8v-42C357.2,55.7,358,55,359,55z"/>
	</g>
	<line class="st2" x1="51.5" y1="412" x2="448.2" y2="412"/>
	<g>
		<path class="st3" d="M81.7,99.2l-2-1.8c-0.1-0.1-0.2-0.3-0.1-0.4c0.1-0.4,0.2-0.8,0.3-1.2c0.2-0.8,0.2-1.5,0.2-2.3
			c0-0.2,0.1-0.3,0.3-0.4l2.1-0.7c0.9-0.3,1.3-1.2,1-2.1l-1.7-5c-0.3-0.9-1.2-1.3-2.1-1l-2.3,0.8c-0.2,0.1-0.3,0-0.4-0.1
			c-0.8-1-1.8-1.8-2.9-2.5C74,82.5,74,82.3,74,82.2l0.4-1.9c0.2-0.9-0.4-1.8-1.3-1.9l-5.2-1c-0.9-0.2-1.8,0.4-1.9,1.3l-0.4,1.9
			c0,0.2-0.2,0.3-0.3,0.3c-1.4,0.2-2.8,0.7-4.1,1.4c-0.1,0.1-0.3,0.1-0.5,0l-1-0.9c-0.7-0.6-1.7-0.5-2.3,0.1l-3.5,4
			c-0.6,0.7-0.5,1.7,0.1,2.3l1.2,1c0.1,0.1,0.2,0.3,0.1,0.4c-0.2,0.5-0.4,1.1-0.5,1.7c-0.2,0.9-0.3,1.9-0.2,2.8
			c0,0.2-0.1,0.3-0.3,0.4l-1.1,0.4c-0.9,0.3-1.3,1.2-1,2.1l1.7,5c0.3,0.9,1.2,1.3,2.1,1l1.7-0.6c0.1-0.1,0.3,0,0.4,0.1
			c1,1,2.1,1.9,3.4,2.6c0.2,0.1,0.2,0.3,0.2,0.4l-0.3,1.5c-0.2,0.9,0.4,1.8,1.3,1.9l5.2,1c0.9,0.2,1.8-0.4,1.9-1.3l0.5-2.3
			c0-0.1,0.1-0.3,0.3-0.3c1.2-0.3,2.4-0.8,3.5-1.5c0.1-0.1,0.3-0.1,0.5,0l1.6,1.4c0.7,0.6,1.7,0.5,2.3-0.1l3.5-4
			C82.5,100.9,82.4,99.9,81.7,99.2z M66.6,99.6c-3.4-0.7-5.6-4-4.9-7.4c0.7-3.4,4-5.6,7.4-4.9c3.4,0.7,5.6,4,4.9,7.4
			C73.3,98.1,70,100.3,66.6,99.6z"/>
		<path class="st3" d="M116,143.7l-3.1-2.7c-0.2-0.2-0.3-0.4-0.2-0.7c0.2-0.6,0.3-1.2,0.5-1.9c0.2-1.2,0.4-2.4,0.4-3.6
			c0-0.3,0.2-0.5,0.4-0.6l3.3-1.1c1.3-0.5,2.1-1.9,1.6-3.3l-2.6-7.8c-0.5-1.3-1.9-2.1-3.3-1.6l-3.6,1.2c-0.2,0.1-0.5,0-0.7-0.2
			c-1.3-1.5-2.8-2.8-4.5-3.9c-0.2-0.1-0.3-0.4-0.3-0.6l0.6-2.9c0.3-1.4-0.6-2.8-2-3l-8.1-1.6c-1.4-0.3-2.8,0.6-3,2l-0.6,2.9
			c-0.1,0.3-0.3,0.4-0.5,0.5c-2.2,0.4-4.4,1.1-6.4,2.2c-0.2,0.1-0.5,0.1-0.7-0.1l-1.6-1.4c-1.1-0.9-2.7-0.8-3.6,0.2l-5.5,6.2
			c-0.9,1.1-0.8,2.7,0.2,3.6l1.8,1.6c0.2,0.2,0.3,0.4,0.2,0.7c-0.3,0.9-0.6,1.7-0.7,2.6c-0.3,1.5-0.4,2.9-0.4,4.4
			c0,0.3-0.2,0.5-0.4,0.6l-1.8,0.6c-1.3,0.5-2.1,1.9-1.6,3.3l2.6,7.8c0.5,1.3,1.9,2.1,3.3,1.6l2.6-0.9c0.2-0.1,0.5,0,0.7,0.2
			c1.5,1.6,3.3,3,5.3,4c0.2,0.1,0.4,0.4,0.3,0.7l-0.5,2.4c-0.3,1.4,0.6,2.8,2,3l8.1,1.6c1.4,0.3,2.8-0.6,3-2l0.7-3.6
			c0-0.2,0.2-0.4,0.5-0.5c1.9-0.5,3.7-1.3,5.4-2.3c0.2-0.1,0.5-0.1,0.7,0.1l2.4,2.1c1.1,0.9,2.7,0.8,3.6-0.2l5.5-6.2
			C117.2,146.3,117.1,144.7,116,143.7z M92.5,144.3c-5.3-1.1-8.7-6.2-7.7-11.5c1.1-5.3,6.2-8.7,11.5-7.7c5.3,1.1,8.7,6.2,7.7,11.5
			C102.9,141.9,97.8,145.4,92.5,144.3z"/>
	</g>
	<path class="st4" d="M49.2,239.1c0.1,0,9.9,0,9.9,0h22.6h8.6c5.4,0,9.7-4.3,9.7-9.7c0-5.4-4.3-9.7-9.7-9.7c-0.1,0-0.2,0-0.2,0
		c-1.5-9.5-9.7-16.8-19.6-16.8c-7.8,0-14.6,4.5-17.8,11.1c-1.1-0.3-2.2-0.5-3.4-0.5c-7.1,0-12.8,5.7-12.8,12.8
		S42.1,239.1,49.2,239.1z"/>
	<path class="st4" d="M391.8,345.5c0.1,0,9.9,0,9.9,0h22.6h8.6c5.4,0,9.7-4.3,9.7-9.7c0-5.4-4.3-9.7-9.7-9.7c-0.1,0-0.2,0-0.2,0
		c-1.5-9.5-9.7-16.8-19.6-16.8c-7.8,0-14.6,4.5-17.8,11.1c-1.1-0.3-2.2-0.5-3.4-0.5c-7.1,0-12.8,5.7-12.8,12.8
		C379,339.7,384.7,345.5,391.8,345.5z"/>
	<path class="st0" d="M146.2,53.8c0.1,0,7,0,7,0h15.9h6c3.8,0,6.9-3.1,6.9-6.9s-3.1-6.9-6.9-6.9c-0.1,0-0.1,0-0.2,0
		c-1-6.7-6.8-11.8-13.8-11.8c-5.5,0-10.3,3.2-12.6,7.8c-0.8-0.2-1.6-0.3-2.4-0.3c-5,0-9,4-9,9S141.2,53.8,146.2,53.8z"/>
	<path class="st3" d="M418.8,228h-2.3v-4.6c0-1.6-0.3-3-0.8-4.4l0,0c-0.1-0.3-0.3-0.7-0.5-1c0,0,0,0,0-0.1c-1.2-2.3-3-4-5.2-5
		c0,0-0.1,0-0.1,0c-0.6-0.3-1.3-0.5-1.9-0.6c-0.1,0-0.1,0-0.2,0c-0.2,0-0.5-0.1-0.8-0.1c-0.1,0-0.2,0-0.3,0c-0.3,0-0.7-0.1-1-0.1
		h-2.6c-0.3,0-0.7,0-1,0.1c-0.1,0-0.2,0-0.3,0c-0.3,0-0.5,0.1-0.8,0.1c-0.1,0-0.2,0-0.2,0c-0.7,0.1-1.3,0.4-1.9,0.6c0,0-0.1,0-0.1,0
		c-2.2,1-4,2.7-5.2,5c0,0,0,0,0,0.1c-0.2,0.3-0.3,0.6-0.5,1l0,0c-0.5,1.3-0.8,2.8-0.8,4.4v4.6H390c-2.2,0-4,1.8-4,4v25
		c0,2.2,1.8,4,4,4h28.8c2.2,0,4-1.8,4-4v-25C422.8,229.8,421,228,418.8,228z M395.2,223.4c0-1.2,0.2-2.4,0.7-3.4
		c0.1-0.3,0.3-0.6,0.4-0.8c0.1-0.1,0.1-0.2,0.2-0.3c0.2-0.3,0.3-0.5,0.5-0.8c0.1-0.1,0.2-0.2,0.2-0.3c0.1-0.2,0.3-0.3,0.5-0.5
		c0.1-0.1,0.2-0.2,0.3-0.3c0.2-0.2,0.5-0.4,0.7-0.6c0.1-0.1,0.2-0.1,0.2-0.2c0.2-0.1,0.4-0.3,0.6-0.4c0.1-0.1,0.2-0.1,0.3-0.1
		c0.3-0.1,0.6-0.3,0.9-0.4c0,0,0.1,0,0.1,0c0.3-0.1,0.6-0.2,0.9-0.2c0.1,0,0.2,0,0.3,0c0.3,0,0.7-0.1,1-0.1h2.6c0.4,0,0.7,0,1,0.1
		c0.1,0,0.2,0,0.3,0c0.3,0.1,0.6,0.1,0.9,0.2c0,0,0.1,0,0.1,0c0.3,0.1,0.6,0.2,0.9,0.4c0.1,0,0.2,0.1,0.3,0.1
		c0.2,0.1,0.4,0.2,0.6,0.4c0.1,0.1,0.2,0.1,0.2,0.2c0.2,0.2,0.5,0.4,0.7,0.6c0.1,0.1,0.2,0.2,0.3,0.3c0.2,0.2,0.3,0.3,0.5,0.5
		c0.1,0.1,0.2,0.2,0.2,0.3c0.2,0.2,0.4,0.5,0.5,0.8c0.1,0.1,0.1,0.2,0.2,0.3c0.1,0.3,0.3,0.5,0.4,0.8c0.4,1,0.7,2.2,0.7,3.4v4.6
		h-18.4V223.4z M406.1,246.5v3.1c0,0.8-0.6,1.4-1.4,1.4c-0.8,0-1.4-0.6-1.4-1.4v-3.1c-1-0.5-1.7-1.6-1.7-2.8c0-1.7,1.4-3.1,3.1-3.1
		c1.7,0,3.1,1.4,3.1,3.1C407.8,245,407.1,246,406.1,246.5z"/>
</g>
<g id="OBJECTS">
	<g>
		<g>
			<path class="st5" d="M84.8,376.7c0,0,17-37.8,13.6-53C98.4,323.7,85.1,351.9,84.8,376.7z"/>
			<path class="st6" d="M88.7,364.3c0,0-8,19-10.1,35.2"/>
			<path class="st6" d="M74.9,358.5c0,0,8.9,19.8,8.2,41"/>
			<line class="st6" x1="82.9" y1="353.2" x2="81.5" y2="400"/>
			<path class="st5" d="M82.9,358.5c0,0,2.4-59.1-10.1-77.4C72.8,281.1,70.1,325.5,82.9,358.5z"/>
			<path class="st7" d="M83.1,367.2c0,0,14.2-57.4,5.6-77.9C88.7,289.4,77.2,332.3,83.1,367.2z"/>
			<path class="st7" d="M79.7,375.5c0,0-8.2-58.6-23.8-74.4C55.9,301.1,61.2,345.3,79.7,375.5z"/>
		</g>
		<polygon class="st3" points="71.7,383.5 91.6,383.5 89.3,411.5 74,411.5 		"/>
	</g>
	<g>
		<ellipse class="st8" cx="246" cy="411.5" rx="90.7" ry="5.2"/>
		<g>
			<g>
				<g>
					<g>
						<path class="st9" d="M321.7,412.3H168.5c-3.9,0-7.1-3.2-7.1-7.1V92.7c0-3.9,3.2-7.1,7.1-7.1h153.3c3.9,0,7.1,3.2,7.1,7.1
							v312.5C328.8,409.1,325.7,412.3,321.7,412.3z"/>
						<path class="st10" d="M313.4,91.1h-46.6c-3.5,0-6.8,1.9-8.4,5.1c-2.3,4.7-7,7.9-12.5,7.9c-5.5,0-10.2-3.2-12.5-7.9
							c-1.6-3.2-4.9-5.1-8.4-5.1h-48.3c-5.7,0-10.3,4.7-10.3,10.5v276.8c0,5.8,4.6,10.5,10.3,10.5h136.7c5.7,0,10.3-4.7,10.3-10.5
							V101.6C323.7,95.8,319.1,91.1,313.4,91.1z"/>
						<path class="st10" d="M265.7,404.2h-40.3c-2.6,0-4.7-2.1-4.7-4.7l0,0c0-2.6,2.1-4.7,4.7-4.7h40.3c2.6,0,4.7,2.1,4.7,4.7l0,0
							C270.4,402.1,268.3,404.2,265.7,404.2z"/>
						<g class="st11">
							<path class="st9" d="M171.9,94.1h48.3c3.5,0,6.8,1.9,8.4,5.1c2.3,4.7,7,7.9,12.5,7.9c3.7,0,7-1.5,9.4-3.8
								c-1.4,0.5-3,0.8-4.6,0.8c-5.5,0-10.2-3.2-12.5-7.9c-1.6-3.2-4.9-5.1-8.4-5.1h-48.3c-3,0-5.6,1.3-7.5,3.4
								C170.1,94.2,171,94.1,171.9,94.1z"/>
							<path class="st9" d="M313.4,91.1h-46.6c-2.8,0-5.4,1.2-7.2,3.3c0.8-0.2,1.5-0.3,2.3-0.3h46.6c5.7,0,10.3,4.7,10.3,10.5v276.8
								c0,2.8-1.1,5.3-2.8,7.2c4.4-1.2,7.6-5.3,7.6-10.2V101.6C323.7,95.8,319.1,91.1,313.4,91.1z"/>
						</g>
					</g>
				</g>
			</g>
			<circle class="st10" cx="245.9" cy="94.1" r="3.6"/>
		</g>
		<g>
			<g>
				
					<rect x="208.9" y="140.8" transform="matrix(-1 -1.224647e-16 1.224647e-16 -1 506.179 290.1026)" class="st3" width="88.3" height="8.5"/>
				
					<rect x="208.9" y="157.2" transform="matrix(-1 -1.224647e-16 1.224647e-16 -1 506.179 322.8033)" class="st3" width="88.3" height="8.5"/>
				
					<rect x="208.9" y="173.5" transform="matrix(-1 -1.224647e-16 1.224647e-16 -1 506.179 355.5039)" class="st3" width="88.3" height="8.5"/>
			</g>
			<g>
				<path class="st3" d="M182.8,127.3c0-0.3,0.1-0.6,0.3-0.9c0.2-0.2,0.4-0.5,0.8-0.7l11.9-8.1c0.1,0,0.2-0.1,0.2-0.1
					c0.1,0,0.1,0,0.2,0c0.2,0,0.4,0.1,0.5,0.2c0.1,0.1,0.2,0.3,0.2,0.5v1.6c0,0.4-0.1,0.7-0.4,0.9c-0.3,0.3-0.5,0.5-0.8,0.7
					l-9.6,6.5l9.6,6.5c0.3,0.2,0.5,0.4,0.8,0.7c0.3,0.3,0.4,0.6,0.4,0.9v1.6c0,0.2-0.1,0.4-0.2,0.5c-0.1,0.1-0.3,0.2-0.5,0.2
					c0,0-0.1,0-0.2,0c-0.1,0-0.1,0-0.2-0.1l-11.9-8.1c-0.3-0.2-0.6-0.4-0.8-0.7c-0.2-0.2-0.3-0.5-0.3-0.9V127.3z"/>
			</g>
		</g>
	</g>
	<g>
		<g>
			
				<rect x="139.6" y="220.1" transform="matrix(-1 -1.224647e-16 1.224647e-16 -1 366.8843 513.1179)" class="st12" width="87.7" height="72.9"/>
			
				<rect x="148.6" y="235.6" transform="matrix(-1 -1.224647e-16 1.224647e-16 -1 365.9439 477.7814)" class="st3" width="68.8" height="6.6"/>
			
				<rect x="148.6" y="248.3" transform="matrix(-1 -1.224647e-16 1.224647e-16 -1 365.9439 503.2438)" class="st3" width="68.8" height="6.6"/>
			
				<rect x="160.6" y="261.1" transform="matrix(-1 -1.224647e-16 1.224647e-16 -1 377.9323 528.7062)" class="st3" width="56.8" height="6.6"/>
			
				<rect x="160.6" y="273.8" transform="matrix(-1 -1.224647e-16 1.224647e-16 -1 377.9323 554.1686)" class="st3" width="56.8" height="6.6"/>
		</g>
		<ellipse class="st8" cx="147.3" cy="449.1" rx="38.1" ry="5.4"/>
		<g>
			<path class="st13" d="M120.6,429.4l-1.9,11.3l8.6,3.8l4.7-14.8C128.5,429.9,123,429.8,120.6,429.4z"/>
		</g>
		<g>
			<path class="st14" d="M170.9,431.3l6.8-58.6l0-85.5l-39.8-4.6l22.2,89.5l-0.5,58.7C162.3,431.4,166.2,431.8,170.9,431.3z"/>
			<polyline class="st13" points="159.6,430.8 160.1,442.7 168.4,444.4 170.9,431.3 			"/>
		</g>
		<g>
			<path class="st14" d="M157.9,289.2l-23.2,1.7l-1.1,13.7l-4.1,71l-8.8,53.8c2.4,0.4,7.8,0.5,11.4,0.3l16.6-56.1L157.9,289.2z"/>
		</g>
		<path class="st14" d="M119.1,438.9c0,0,2.7,4.1,9.7,0.5c0,0-0.2,1.1,3.8,5.1c0,0,9.6,2.5,12,6.5c0,0-14.9,1.9-28.9-0.8
			C115.8,450.2,116.7,443.1,119.1,438.9z"/>
		<path class="st14" d="M160.1,440c0,0,6.4,3,9.3-0.1c0,0,1.4,1.2,4.5,3.9c0,0,9,2.9,11.5,6.9c0,0-13.3,3-27.5,1.4
			C157.7,452.2,157.7,444.2,160.1,440z"/>
		<g>
			<g>
				<g>
					<g>
						<g>
							<path class="st13" d="M127.7,255.9c-2.3,6.1-4.2,11.2-4.9,13.6c-0.3,0.9-0.1,1.9,0.4,2.7c4.2,5.8,23.2,17.3,29.9,21.4
								l4.4-6.9c0,0-20.5-16-21.1-18.5c0,0,1-5.2,3.2-9.4"/>
							<path class="st15" d="M142.3,261.6c2.6-5.2,4.6-13.4,7.2-21.9c1.3-4.3,0.5-9.1-1.6-12.2c-2.3-3.4-5-1.5-5-1.5
								c-4.7,5.2-11.9,21.1-15.3,30"/>
						</g>
					</g>
				</g>
			</g>
		</g>
		<g>
			<g>
				<g>
					<g>
						<g>
							<path class="st13" d="M180.1,261.3c1.4,6.1,4,13,4.7,15.3c0.3,0.9,0.9,1.6,1.7,1.9c6.1,2.3,26,0.9,33,0.5l-0.2-7.9
								c0,0-23-2.1-24.8-3.7c0,0-0.8-6-1.4-10.5"/>
							<path class="st15" d="M193.9,257c-0.7-5.5-2-11-4.3-19.1c-1.2-4.1-7.4-10.7-11.5-11.5c-3.7-0.7-1.7,4.1-1.7,4.1
								c1.1,8,1.9,21.9,3.8,30.7"/>
						</g>
					</g>
				</g>
			</g>
		</g>
		<path class="st13" d="M179.8,200.9l2.6,4.4c0.2,0.4,0,0.9-0.4,1.1l-2,1L179.8,200.9z"/>
		<path class="st13" d="M173.5,225.5c-0.1,0-0.1,0-0.2-0.1c-1.7-0.7-2.3-13.4-0.9-16.7l-13.6-17.9c0,0,1,12.6-0.5,24.7
			c-0.5,4-3.8,7.3-5.2,8"/>
		<path class="st13" d="M180.1,215c0,0.8-0.5,1.5-1.3,1.7c-8.6,2.1-22.7-11-22.7-20c0-4.5,4.7-6.6,9.2-7.8c7-1.7,12.3-2.7,14.7,10.1
			C180.1,199.2,180.1,215,180.1,215z"/>
		<path class="st14" d="M178.2,192.5l0.7-0.7c0.9-0.9,0.8-2.3-0.1-3.1c-11.6-10-25.4,2.4-24.6,7.6c2.3,14.7,4.6,16.8,4.6,16.8
			s6.1,4.8,5.8-7.8c5.5,3.2,6-9.5,6-9.5C170.5,193.8,175.5,193.5,178.2,192.5z"/>
		<g>
			<path class="st13" d="M163.6,206.5c0.9,1.6,2.7,2.5,3.9,1.8c1.3-0.6,1.6-2.5,0.6-4.1c-0.9-1.6-2.7-2.5-3.9-1.8
				C163,203.1,162.7,204.9,163.6,206.5z"/>
		</g>
		<path class="st15" d="M184.6,241.4c-0.8-7.3-3.2-13.8-4.8-14.2c0,0-5.7-3.1-7.5-3.6c0,0-13.3,0.9-16.2-2.6c0,0-12.8,3.9-13.2,5
			c-5,16.7-3.8,21-3.8,21l-1.8,22.8l-3.6,25.6c5.3,2.5,32.5,5.7,44.7,3.3c0,0-1.3-23.9-1.1-27.8
			C177.4,270.9,185.2,247.7,184.6,241.4z"/>
		<path class="st13" d="M216.8,271.6c0,0,1.4-4.3,3.2-5.2c1.8-0.9,5.1-3,6-2.2c0.9,0.8-1.6,3.5-4.6,4.1L216.8,271.6z"/>
		<path class="st13" d="M219.2,268.5c0,0,7.6-1.7,8.9-1.7c1.9,0,1.9,1.8,1.3,2.6c-0.4,0.5,1.3,1.1,0.3,2.9c-0.6,1.1,0.3,1.1,0.1,2.2
			c-0.2,0.9-1.6,1.2-1.4,2.1c0.3,1.6-1.3,1.7-2.3,2.3c-1,0.6-5.4,1.3-9.3-0.6C211.6,275.7,219.2,268.5,219.2,268.5z"/>
		<path class="st14" d="M168.1,203.3c0,0,4.9,4.1,7.5,4.1c2.6,0,4.4,0,4.4,0s1.8,9.3,1.3,9.8s-9.4,2.3-13.5-2.4
			C163.7,210,168,204.8,168.1,203.3z"/>
		<line class="st16" x1="138" y1="259.6" x2="138.5" y2="241.4"/>
		<line class="st16" x1="181.3" y1="246.9" x2="180.4" y2="260.8"/>
		<line class="st17" x1="152.3" y1="340.3" x2="146.5" y2="322.3"/>
		<path class="st18" d="M170.1,434.4l-9.9-0.5c-1,0-1.7-0.9-1.6-1.8l0.1-2.5c0-1,0.9-1.7,1.8-1.6l9.9,0.5c1,0,1.7,0.9,1.6,1.8
			l-0.1,2.5C171.9,433.8,171.1,434.5,170.1,434.4z"/>
		<path class="st18" d="M131,433.3l-9.9-1.2c-1-0.1-1.6-1-1.5-1.9l0.3-2.5c0.1-1,1-1.6,1.9-1.5l9.9,1.2c1,0.1,1.6,1,1.5,1.9
			l-0.3,2.5C132.8,432.7,131.9,433.4,131,433.3z"/>
	</g>
	<g>
		<g>
			<polygon class="st19" points="317.2,424.1 317.2,431.2 369,434.1 414.2,432.6 414.2,425.7 			"/>
			<polygon class="st9" points="317.2,431.2 369,434.1 369,427.1 345.8,424.6 317.2,424.1 			"/>
			<polygon class="st3" points="414.2,425.7 369,427.1 317.2,424.3 362.4,422.8 			"/>
		</g>
		<g>
			<polygon class="st7" points="335.6,416.6 335.6,423.7 387.4,426.6 432.6,425.1 432.6,418.2 			"/>
			<polygon class="st5" points="335.6,423.7 387.4,426.6 387.4,419.7 364.2,417.1 335.6,416.6 			"/>
			<polygon class="st20" points="432.6,418.2 387.4,419.7 335.6,416.8 380.8,415.3 			"/>
		</g>
		<g>
			<polygon class="st19" points="317.2,407.9 317.2,415 369,417.8 414.2,416.4 414.2,409.4 			"/>
			<polygon class="st9" points="317.2,415 369,417.8 369,410.9 345.8,408.3 317.2,407.9 			"/>
			<polygon class="st3" points="414.2,409.4 369,410.9 317.2,408 362.4,406.6 			"/>
		</g>
		<g>
			<polygon class="st7" points="478,431.4 458,385.1 408,385.1 405.1,389.2 425.1,435.4 475.2,435.4 			"/>
			<polygon class="st20" points="478,431.4 428,431.4 408,385.1 458,385.1 			"/>
			<text transform="matrix(0.8829 0 0.4695 0.8829 428.168 413.932)" class="st10 st21 st22">C++</text>
			<polygon class="st5" points="428,431.4 425.1,435.4 405.1,389.2 408,385.1 			"/>
		</g>
		<g>
			<polygon class="st8" points="403.1,446.3 399.7,453.1 352.6,434.2 359.6,418.4 			"/>
			<polygon class="st15" points="443.4,423 402.8,393.2 359.6,418.4 359.1,423.3 399.7,453.1 442.9,427.9 			"/>
			<polygon class="st23" points="443.4,423 400.2,448.2 359.6,418.4 402.8,393.2 			"/>
			<text transform="matrix(0.7627 -0.4448 0.8504 0.5262 397.0594 431.6933)" class="st10 st21 st22">JS</text>
			<polygon class="st24" points="400.2,448.2 399.7,453.1 359.1,423.3 359.6,418.4 			"/>
		</g>
	</g>
	<g>
		<g>
			<path class="st25" d="M307.5,254.6c0,0,31.3,6.4,32.1,7.8c0.8,1.3-11.8,7.4-11.8,7.4s-19.1-2.6-25.2-6.8
				C296.5,258.7,307.5,254.6,307.5,254.6z"/>
			<path class="st25" d="M311.1,256.8c-2.6-6.1-9.4-22.2-9.4-22.2L297,235c0,0,0.8,22.3,3.9,26.6C304,265.8,313,261.4,311.1,256.8z"
				/>
		</g>
		<ellipse class="st8" cx="305.6" cy="471.8" rx="36.5" ry="5.2"/>
		<g>
			<path class="st14" d="M326.5,451.8l-11-60.9l-6.4-75.4l31.1-5.2l-7.9,78.6l5,61.6C334.8,451.2,331.1,451.9,326.5,451.8z"/>
			<polyline class="st13" points="337.3,450.4 337.8,461.8 329.9,464.1 326.5,451.8 			"/>
		</g>
		<path class="st14" d="M337.6,459.3c0,0-5.8,3.4-8.9,0.6c0,0-1.3,1.3-4,4.1c0,0-8.4,3.5-10.4,7.5c0,0,12.9,1.8,26.4-0.8
			C340.8,470.7,340.2,463.1,337.6,459.3z"/>
		<path class="st18" d="M327.6,454.7l9.3-1.2c1-0.1,1.6-1,1.5-2l-0.3-2.2c-0.1-1-1-1.6-2-1.5l-9.3,1.2c-1,0.1-1.6,1-1.5,2l0.3,2.2
			C325.8,454.2,326.7,454.8,327.6,454.7z"/>
		<g>
			<g>
				<path class="st14" d="M302.9,315.3l21.4,5.6l-0.7,4.3c-1.6,9.1,6.5,6.1,3.1,14.7l-28.9,48.7l1.7,71.1c-2.5-0.6-7.8-2.8-11.1-4.5
					l-9.1-68.2L302.9,315.3z"/>
			</g>
			<g>
				<path class="st13" d="M299.3,451.8l1,12l-9.4,3.2l-3.6-15.9C291.1,451.7,296.7,452,299.3,451.8z"/>
			</g>
			<path class="st14" d="M300.1,461.8c0,0-3.1,4.1-10.2-0.3c0,0,0.1,1.2-4.5,5c0,0-10.2,1.7-13.2,5.7c0,0,15.5,3.3,30.3,1.7
				C302.6,473.9,302.2,466.4,300.1,461.8z"/>
			<path class="st18" d="M288.1,455l10.6-0.4c1,0,1.7-0.8,1.7-1.8l-0.1-2.8c0-1-0.8-1.7-1.8-1.7l-10.6,0.4c-1,0-1.7,0.8-1.7,1.8
				l0.1,2.8C286.3,454.3,287.1,455,288.1,455z"/>
		</g>
		<g>
			<path class="st26" d="M300.6,317.6c0,0,24.5,10.7,34.1-7.4L300.6,317.6z"/>
			<path class="st25" d="M328.9,261.5c0,0-1.1-10.1-0.6-11c0.5-0.9,7.5-8.3,7.2-14.6c-0.3-6.3-7-12.1-15.2-10.5
				c-8.1,1.6-10.1,6-10.4,10.4c-0.1,1.2,0.9,2.8,0.2,6.2c-1.1,5.5,0.6,7.6,2.9,12.8c0.2,0.4,0.7,0.5,1.1,0.6c1.4,0.2,4,0,5.4-1.4
				l-1.3,5.4C318.1,259.4,324,263,328.9,261.5z"/>
			<path class="st14" d="M312,231.5c0,0,2.8,6.5,8.5,10.7c0,0,2.9-2.9,4-0.1c1.4,3.6-3.5,5.3-3.5,5.3l7,3.3c0,0,7.6-6.5,8-12.8
				c0.3-6.3-3.4-13.1-11.4-14.4c-9-1.5-17.2,5.7-14.7,10.9C310,234.5,310,233.2,312,231.5z"/>
			<path class="st25" d="M311.1,239.3c0,0-2.1,3.3-3,4.7c-0.7,1.1,1.8,2.4,2.6,2.2C311.5,246,311.1,239.3,311.1,239.3z"/>
			<g>
				<path class="st15" d="M339.3,262.2c-2.7-2.1-6.5-1.2-10.7-4.4l-10.3-0.1c0,0-3.7,2.7-9.8,2.8c-4.6,0-6.7,8.7-6.7,8.7
					c-0.3,1.2,0.4,37.5,0.4,37.5l-1.5,10.8c21.5,9.6,39.7-7.4,39.7-7.4l-6.5-11.7l5.2-22.6C340.9,272.4,342.5,264.7,339.3,262.2z"/>
			</g>
		</g>
		<path class="st14" d="M328.2,228.1c0.5-3.4,3.9-6.4,7.7-6.5c2.5,0,5.1,1.2,6.5,3.4c2.7,4.3,0,11.4-4.6,12.5
			C333.2,238.5,327.3,233.3,328.2,228.1z"/>
		<line class="st17" x1="313.7" y1="361.9" x2="326.1" y2="339.9"/>
		<path class="st14" d="M340.3,310.2c0,0,3.4,17.4-3.2,30.6L340.3,310.2z"/>
		<g>
			<g>
				<polygon class="st19" points="310.7,253.8 285.7,210 236,215.5 233.6,219.9 258.6,263.6 308.3,258.1 				"/>
				<polygon class="st3" points="310.7,253.8 261,259.3 236,215.5 285.7,210 				"/>
				<text transform="matrix(0.8776 -9.715981e-02 0.5638 0.8259 259.265 241.881)" class="st10 st21 st22">PHP</text>
				<polygon class="st9" points="261,259.3 258.6,263.6 233.6,219.9 236,215.5 				"/>
			</g>
			<path class="st25" d="M278.1,272.5c0,0,28.9-12.6,30.4-11.9c1.4,0.7-5.1,13.5-5.1,13.5s-17.4,8.3-24.8,8
				C271.2,281.9,278.1,272.5,278.1,272.5z"/>
			<g>
				<path class="st25" d="M261.5,256c0,0-0.7-4.4-2.2-4.8c-3.3-1-4.4-3.2-4.5-2.2c-0.3,2,1.1,3.2,3.4,3.9L261.5,256z"/>
				<path class="st25" d="M259.8,253.1c0,0-5.8-1.9-6.8-1.9c-1.4-0.1-1.6,1.6-1.1,2.3c0.3,0.5-1.1,0.9-0.4,2.6c0.4,1.1-0.3,1-0.2,2
					c0.1,0.8,1.2,1.2,1,2c-0.3,1.4,0.9,1.6,1.7,2.2c0.8,0.6,4.1,1.4,7.2-0.2C265.3,259.9,259.8,253.1,259.8,253.1z"/>
			</g>
			<path class="st25" d="M282.4,272.3c-5.5-3.7-20-13.5-20-13.5l-3.8,3c0,0,12.9,18.3,17.8,20.1
				C281.3,283.7,286.5,275.1,282.4,272.3z"/>
			<path class="st15" d="M308.8,260.5c0,0-8.7,0.1-20.5,7.2c0,0,0.8,10.4,1.8,12.5C290.2,280.3,323.5,273.3,308.8,260.5z"/>
		</g>
		<path class="st25" d="M301.7,234.2c0,0-1.4-4-2.1-5.6c-0.7-1.6-5.8-2.6-7.6-3.5c-1.7-1-0.1,3.1,3.6,4c0,0,1.3,8,6.5,6.8"/>
	</g>
	<path class="st8" d="M310.7,238.3"/>
</g>
</svg>
